<?xml version="1.0" encoding="UTF-8"?>
<svg width="88px" height="88px" viewBox="0 0 88 88" version="1.1" xmlns="http://www.w3.org/2000/svg" xmlns:xlink="http://www.w3.org/1999/xlink">
    <!-- Generator: Sketch 60 (88103) - https://sketch.com -->
    <title>编组</title>
    <desc>Created with Sketch.</desc>
    <g id="Page-1" stroke="none" stroke-width="1" fill="none" fill-rule="evenodd">
        <g id="画板备份-8" transform="translate(-289.000000, -920.000000)">
            <g id="编组-5" transform="translate(289.000000, 920.000000)">
                <g id="编组">
                    <circle id="椭圆形" stroke="#BCC0C6" cx="44" cy="44" r="43.5"></circle>
                    <path d="M31.8618017,34.7799505 C31.9734113,35.7018461 32.4421718,36.5138062 33.1324774,36.9847988 C33.1224325,37.1823479 33.1001106,37.3754326 33.1001106,37.578004 C32.9539019,42.0624792 34.9851973,46.2617917 38.3546922,48.4404118 L38.4434218,48.4962166 C38.4434218,48.4962166 40.0014924,50.1368783 44.2672126,50.1368783 L44.272235,50.1368783 C48.4481096,50.1368783 50.0759361,48.4962166 50.0759361,48.4962166 C53.4956553,46.3393604 55.5682462,42.1076811 55.4225957,37.5874909 C55.4225957,37.3938481 55.403064,37.2130405 55.3935772,37.021072 C56.087231,36.5405925 56.5543174,35.7174714 56.6620207,34.785531 L56.6620207,29.5404362 L61.0466052,27.684926 L61.0466052,27.684926 C61.5009401,27.4932247 62.0246572,27.706131 62.2163579,28.1604662 C62.2626249,28.2701198 62.2865029,28.3879166 62.2865888,28.5069309 L62.2865888,36.1923704 L62.2865888,36.1923706 C62.2865889,36.6854932 62.6863438,37.0852476 63.1794659,37.0852476 L63.1794658,37.0852476 C63.6725885,37.0852477 64.0723429,36.6854932 64.0723429,36.1923706 L64.0723429,26.4030894 L64.0996873,26.3919285 L64.0723429,26.3802095 L64.0723429,26.3707226 L64.049463,26.3707226 L44.4290471,18 L24.4509224,26.3707226 L31.8618022,29.5354139 L31.8618017,34.7799505 Z M44.2616321,47.6267776 C39.7972467,47.6976497 36.013122,43.83205 35.4935792,38.6678721 C38.3189771,40.1048462 41.3441563,40.9335477 44.42235,41.1126812 C47.3956307,40.9408024 50.3147807,40.1199135 53.0280109,38.6929843 C52.496191,43.8415368 48.7154146,47.6943014 44.2616321,47.6267776 Z M34.7279371,31.0477243 L43.1126109,34.3368602 L43.1126111,34.3368603 C43.9582884,34.6685792 44.8985885,34.6655858 45.7421341,34.3284896 L53.9454423,31.0488404 L53.9454423,34.0578362 C53.9454423,34.4088485 52.9035663,34.8608675 52.3070128,35.3279538 L52.3070128,35.3279539 C52.1670934,35.443318 52.0196264,35.549211 51.8655967,35.6449252 C49.5184461,37.0891539 46.9062226,37.8508897 44.2521454,37.866515 C41.5986263,37.8374965 38.9908672,37.0640417 36.6492971,35.6114423 C36.5127611,35.5221546 36.3790159,35.4272864 36.2480604,35.3268378 C35.6230465,34.8497066 34.725705,34.3926651 34.725705,34.0567201 L34.7279371,31.0477243 Z M54.4488016,50.4566399 L54.4488016,50.4566399 C53.6445203,49.8858459 52.5297967,50.0751247 51.9590027,50.8794082 C51.8982251,50.9650469 51.8451207,51.0558804 51.8003055,51.1508518 L46.8537665,61.6343448 L46.0864502,59.0260277 L46.0864503,59.0260277 C46.022417,58.8079341 46.0439716,58.5736298 46.1467195,58.3708792 L47.2923924,56.1040875 L47.2923924,56.1040874 C47.4675286,55.7585786 47.3999076,55.3395558 47.1249779,55.0666759 L45.01723,52.9818079 L45.01723,52.9818079 C44.6693684,52.6378314 44.1094809,52.6378314 43.7616216,52.9818079 L41.6533156,55.0650017 L41.6533155,55.0650018 C41.3781263,55.3379755 41.3104903,55.7573219 41.4859011,56.1029714 L42.6220871,58.3496733 L42.6220871,58.3496733 C42.7308714,58.5643628 42.7483779,58.8138768 42.6706373,59.0416531 L41.7610188,61.7029848 L36.9539918,51.1709416 L36.9539919,51.1709417 C36.5445608,50.2737007 35.4852928,49.878251 34.5880517,50.2876798 C34.4893531,50.332718 34.3949643,50.3866569 34.3060561,50.4488268 C30.7300833,52.9505568 23,58.9523649 23,64.0830598 C23,66.1193776 23.7215563,68 25.4866627,68 L63.3641826,68 C65.1181281,68 65.8580999,66.1344449 65.8580999,64.1104042 C65.8580999,59.1208955 58.0342645,52.999665 54.448805,50.4566395 L54.4488016,50.4566399 Z" id="形状" fill="#828992" fill-rule="nonzero"></path>
                </g>
            </g>
        </g>
    </g>
</svg>