<?xml version="1.0" encoding="UTF-8"?>
<svg width="88px" height="88px" viewBox="0 0 88 88" version="1.1" xmlns="http://www.w3.org/2000/svg" xmlns:xlink="http://www.w3.org/1999/xlink">
    <title>编组 2</title>
    <g id="Page-1" stroke="none" stroke-width="1" fill="none" fill-rule="evenodd">
        <g id="画板备份-8" transform="translate(-283.000000, -457.000000)">
            <g id="编组-2" transform="translate(283.000000, 457.000000)">
                <circle id="椭圆形" stroke="#BCC0C6" cx="44" cy="44" r="43.5"></circle>
                <g id="数学" transform="translate(23.000000, 23.000000)" fill="#828992" fill-rule="nonzero">
                    <path d="M39.6446008,41.1743119 L28.1718644,41.1743119 C27.3305427,41.1743119 26.6422018,40.5015037 26.6422018,39.6792248 L26.6422018,2.30242656 C26.6422018,1.48010018 27.3305427,0.80733945 28.1718644,0.80733945 L39.6446008,0.80733945 C40.485971,0.80733945 41.1743119,1.48014763 41.1743119,2.30242656 L41.1743119,39.6792248 C41.1743119,40.5015512 40.4859225,41.1743119 39.6446008,41.1743119 Z M29.7015755,38.1841377 L38.1148897,38.1841377 L38.1148897,3.79751368 L29.7015755,3.79751368 L29.7015755,38.1841377 Z" id="形状"></path>
                    <path d="M40.0425183,7.17675833 L34.3835978,7.17675833 C33.7422911,7.17675833 33.251852,6.69107899 33.251852,6.05599634 C33.251852,5.4209137 33.7422911,4.9351395 34.3835978,4.9351395 L40.0425183,4.9351395 C40.6838249,4.9351395 41.174264,5.42081884 41.174264,6.05594891 C41.174264,6.69107899 40.6838249,7.1767109 40.0425183,7.1767109 L40.0425183,7.17675833 Z M40.0425183,10.9127897 L37.2131059,10.9127897 C36.5717993,10.9127897 36.0813601,10.4271104 36.0813601,9.79193287 C36.0813601,9.15675536 36.5717993,8.67117088 37.2131059,8.67117088 L40.0425661,8.67117088 C40.6838728,8.67117088 41.1743119,9.15685022 41.1743119,9.79193287 C41.1743119,10.4270155 40.6838728,10.9127423 40.0425661,10.9127423 L40.0425183,10.9127897 Z M40.0425183,14.6487262 L34.3835978,14.6487262 C33.7422911,14.6487262 33.251852,14.1630469 33.251852,13.5279643 C33.251852,12.8928816 33.7422911,12.4071548 34.3835978,12.4071548 L40.0425183,12.4071548 C40.6838249,12.4071548 41.174264,12.8928342 41.174264,13.5279168 C41.174264,14.1629995 40.6838249,14.6487262 40.0425183,14.6487262 Z M40.0425183,18.3847576 L37.2131059,18.3847576 C36.5717993,18.3847576 36.0813601,17.8990783 36.0813601,17.2639482 C36.0813601,16.6288181 36.5717993,16.1431388 37.2131059,16.1431388 L40.0425661,16.1431388 C40.6838728,16.1431388 41.1743119,16.6288181 41.1743119,17.2639008 C41.1743119,17.8989834 40.6838728,18.3847576 40.0425661,18.3847576 L40.0425183,18.3847576 Z M40.0425183,22.1207416 L34.3835978,22.1207416 C33.7422911,22.1207416 33.251852,21.6350622 33.251852,20.9999322 C33.251852,20.3648021 33.7422911,19.8791702 34.3835978,19.8791702 L40.0425183,19.8791702 C40.6838249,19.8791702 41.174264,20.3648495 41.174264,20.9999322 C41.174264,21.6350148 40.6838249,22.1206942 40.0425183,22.1206942 L40.0425183,22.1207416 Z M40.0425183,25.8567255 L37.2131059,25.8567255 C36.5717993,25.8567255 36.0813601,25.3710462 36.0813601,24.7359636 C36.0813601,24.1008809 36.5717993,23.6151067 37.2131059,23.6151067 L40.0425661,23.6151067 C40.6838728,23.6151067 41.1743119,24.100786 41.1743119,24.7359161 C41.1743119,25.3710462 40.6838728,25.8567255 40.0425661,25.8567255 L40.0425183,25.8567255 Z M40.0425183,29.5927569 L34.3835978,29.5927569 C33.7422911,29.5927569 33.251852,29.1070776 33.251852,28.4719001 C33.251852,27.8367226 33.7422911,27.3511381 34.3835978,27.3511381 L40.0425183,27.3511381 C40.6838249,27.3511381 41.174264,27.8368174 41.174264,28.4719001 C41.174264,29.1069827 40.6838249,29.5927095 40.0425183,29.5927095 L40.0425183,29.5927569 Z M40.0425183,33.3286934 L37.2131059,33.3286934 C36.5717993,33.3286934 36.0813601,32.8430141 36.0813601,32.2079315 C36.0813601,31.5728488 36.5717993,31.087122 37.2131059,31.087122 L40.0425661,31.087122 C40.6838728,31.087122 41.1743119,31.5728014 41.1743119,32.207884 C41.1743119,32.8429667 40.6838728,33.3286934 40.0425661,33.3286934 L40.0425183,33.3286934 Z M40.0425183,37.0647248 L34.3835978,37.0647248 C33.7422911,37.0647248 33.251852,36.5790455 33.251852,35.9439154 C33.251852,35.3087853 33.7422911,34.8231534 34.3835978,34.8231534 L40.0425183,34.8231534 C40.6838249,34.8231534 41.174264,35.3088328 41.174264,35.9439154 C41.174264,36.5789981 40.6838249,37.0646774 40.0425183,37.0646774 L40.0425183,37.0647248 Z M24.9521275,41.1743119 L2.31639768,41.1743119 C1.48638692,41.1743119 0.80733945,40.5018073 0.80733945,39.6798994 L0.80733945,2.31996496 C0.80733945,1.64746034 1.26003776,1.0497048 1.9013923,0.862926948 C2.54274684,0.676149093 3.25953513,0.975003146 3.59905887,1.53538414 L26.2347408,38.895366 C26.4988308,39.3436708 26.5365237,39.9414263 26.2724337,40.3897311 C26.0083437,40.8380359 25.4802117,41.1743119 24.9520317,41.1743119 L24.9521275,41.1743119 Z M3.82550381,38.1854868 L22.2735348,38.1854868 L3.82550381,7.69981221 L3.82550381,38.1854868 Z" id="形状"></path>
                    <polygon id="路径" points="15.3394495 34.7155963 7.26605505 34.7155963 7.26605505 21.7981651"></polygon>
                </g>
            </g>
        </g>
    </g>
</svg>