<?xml version="1.0" encoding="UTF-8"?>
<svg width="88px" height="88px" viewBox="0 0 88 88" version="1.1" xmlns="http://www.w3.org/2000/svg" xmlns:xlink="http://www.w3.org/1999/xlink">
    <!-- Generator: Sketch 60 (88103) - https://sketch.com -->
    <title>编组 12</title>
    <desc>Created with Sketch.</desc>
    <g id="Page-1" stroke="none" stroke-width="1" fill="none" fill-rule="evenodd">
        <g id="画板备份-8" transform="translate(-282.000000, -589.000000)">
            <g id="编组-3" transform="translate(-5.000000, 0.000000)">
                <g id="编组-4" transform="translate(287.000000, 589.000000)">
                    <g id="编组-12">
                        <circle id="椭圆形" stroke="#BCC0C6" cx="44" cy="44" r="43.5"></circle>
                        <path d="M21,22 L66,22 L66,30.3142476 L21,30.3142476 L21,22 Z M43.4427273,36.9260509 C48.3617867,36.9260509 52.8328883,38.912449 56.1538509,42.1532132 L65.3128497,32.0461977 L21.572544,32.0461977 L30.7315428,42.1532132 C34.0525358,38.9123753 38.5238568,36.9260509 43.4427273,36.9260509 Z M43.5000868,39.320957 C34.5518393,39.320957 27.2978275,46.6366691 27.2978275,55.6606628 C27.2978275,64.684718 34.5519003,72 43.5000868,72 C52.4482123,72 59.702346,64.684718 59.702346,55.6606628 C59.702346,46.636792 52.4481514,39.320957 43.5000868,39.320957 Z M49.8147656,64.7229365 L43.5002086,61.3750007 L37.1854079,64.7229365 L38.3915158,57.6318657 L33.2828168,52.6100019 L40.3428326,51.5752878 L43.5001964,45.1236091 L46.657414,51.5752878 L53.7175517,52.6100019 L48.608999,57.6318657 L49.8148083,64.7229365 L49.8147656,64.7229365 Z" id="形状" fill="#828992" fill-rule="nonzero"></path>
                    </g>
                </g>
            </g>
        </g>
    </g>
</svg>